<svg width="666" height="593" viewBox="0 0 666 593" fill="none" xmlns="http://www.w3.org/2000/svg">
<path d="M491 496.5H146.5L134.342 494.408C26.296 475.816 35.4944 317.773 144.968 311.842C154.45 311.328 162.785 305.389 166.366 296.594L185.528 249.536C234.598 129.031 401.354 118.992 464.526 232.74L467.982 238.962C474.238 250.226 485.725 257.603 498.571 258.605C620.803 268.142 645.551 436.64 531.223 480.921L491 496.5Z" stroke="url(#paint0_linear_943_1348)" stroke-width="4"/>
<path d="M361.863 500.304C362.859 499.828 363.281 498.634 362.804 497.637C362.328 496.641 361.134 496.219 360.137 496.696L361.863 500.304ZM172.332 499.781C149.084 472.283 149.092 428.949 168.855 380.547C188.577 332.245 227.788 279.454 281.879 233.725L279.297 230.67C224.815 276.73 185.164 330.023 165.152 379.035C145.181 427.946 144.584 473.155 169.277 502.364L172.332 499.781ZM281.879 233.725C335.97 187.996 394.548 158.114 445.458 146.703C496.474 135.268 539.205 142.47 562.453 169.968L565.507 167.386C540.814 138.177 496.135 131.245 444.583 142.8C392.926 154.379 333.778 184.611 279.297 230.67L281.879 233.725ZM360.137 496.696C320.974 515.417 282.198 526.009 249.084 526.965C215.944 527.922 188.779 519.235 172.332 499.781L169.277 502.364C186.815 523.108 215.408 531.94 249.2 530.964C283.018 529.987 322.348 519.194 361.863 500.304L360.137 496.696ZM562.453 169.968C584.907 196.529 585.669 237.858 567.876 284.284L571.611 285.716C589.611 238.749 589.36 195.6 565.507 167.386L562.453 169.968Z" fill="#A5A4AB"/>
<path d="M305.671 520.508C125.808 374.756 28.3513 196.934 87.9957 123.33C133.126 67.6376 255.27 87.5711 389.962 163.711" stroke="#7C7C86" stroke-width="4"/>
<circle cx="167" cy="382" r="14" fill="#2CD2FA"/>
<circle cx="385" cy="163" r="14" fill="#2CD2FA"/>
<circle cx="567" cy="285" r="14" fill="#2CD2FA"/>
<defs>
<linearGradient id="paint0_linear_943_1348" x1="137" y1="300.5" x2="570.5" y2="446.5" gradientUnits="userSpaceOnUse">
<stop stop-color="#35D4FA"/>
<stop offset="0.81" stop-color="#43D9AD"/>
</linearGradient>
</defs>
</svg>
